<svg xmlns="http://www.w3.org/2000/svg" width="600" height="512" viewBox="0 0 600 512" role="img" aria-labelledby="title desc">
<title id="title">DROWSINESS DETECTION</title>
<desc id="desc">Original vector illustration for Maaz Sohail's engineering portfolio. All elements are included in this file.</desc>
<defs>
  <pattern id="grid" width="32" height="32" patternUnits="userSpaceOnUse"><path d="M 32 0 L 0 0 0 32" fill="none" stroke="#30464f" stroke-width="0.6" opacity="0.45"/></pattern>
  <linearGradient id="fade" x1="0" x2="1"><stop stop-color="#bdf4cf"/><stop offset="1" stop-color="#a8cfff"/></linearGradient>
</defs>
<g font-family="Segoe UI, Arial, sans-serif">
<rect x="0.5" y="0.5" width="599" height="511" rx="20" fill="#101d25" stroke="#30464f" /><text x="28" y="39" fill="#ffb68c" font-size="15" font-weight="600" font-family="Consolas, monospace" letter-spacing="2">SYSTEM / DROWSINESS DETECTION</text><rect x="28" y="67" width="544" height="91" rx="12" fill="#172933" stroke="#30464f" /><text x="50" y="122" fill="#ffb68c" font-size="29" font-weight="600" >01</text><text x="114" y="104" fill="#f3f1e7" font-size="26" font-weight="600" >Capture</text><text x="114" y="134" fill="#afc0c3" font-size="21" font-weight="400" >OpenCV camera frames</text><path d="M 71 158 V 176" stroke="#ffb68c" fill="none" stroke-width="2" stroke-linecap="round" stroke-linejoin="round" /><rect x="28" y="176" width="544" height="91" rx="12" fill="#172933" stroke="#30464f" /><text x="50" y="231" fill="#ffb68c" font-size="29" font-weight="600" >02</text><text x="114" y="213" fill="#f3f1e7" font-size="26" font-weight="600" >Measure</text><text x="114" y="243" fill="#afc0c3" font-size="21" font-weight="400" >MediaPipe landmarks</text><path d="M 71 267 V 285" stroke="#ffb68c" fill="none" stroke-width="2" stroke-linecap="round" stroke-linejoin="round" /><rect x="28" y="285" width="544" height="91" rx="12" fill="#172933" stroke="#30464f" /><text x="50" y="340" fill="#ffb68c" font-size="29" font-weight="600" >03</text><text x="114" y="322" fill="#f3f1e7" font-size="26" font-weight="600" >Decide</text><text x="114" y="352" fill="#afc0c3" font-size="21" font-weight="400" >Eye ratio + duration</text><path d="M 71 376 V 394" stroke="#ffb68c" fill="none" stroke-width="2" stroke-linecap="round" stroke-linejoin="round" /><rect x="28" y="394" width="544" height="91" rx="12" fill="#172933" stroke="#30464f" /><text x="50" y="449" fill="#ffb68c" font-size="29" font-weight="600" >04</text><text x="114" y="431" fill="#f3f1e7" font-size="26" font-weight="600" >Act</text><text x="114" y="461" fill="#afc0c3" font-size="21" font-weight="400" >ESP32 + notifications</text></g></svg>
